<svg xmlns="http://www.w3.org/2000/svg" xmlns:xlink="http://www.w3.org/1999/xlink" fill="none" version="1.1" viewBox="0 0 349.289 376.13"><g clip-path="url(#a)" transform="translate(0 .13)"><path d="M18.404 57.827c-6.354 0-12.533-3.294-15.938-9.188C-2.61 39.853.403 28.618 9.195 23.545L45.961 2.334C54.754-2.739 65.997.272 71.073 9.058c5.076 8.786 2.064 20.021-6.729 25.094L27.579 55.363a18.31 18.31 0 0 1-9.175 2.464z" fill="url(#b)"/><use xlink:href="#c" fill="url(#d)" width="100%" height="100%" x="0" y="0"/><use xlink:href="#c" fill="url(#e)" width="100%" height="100%" x="0" y="0"/><path d="M294.137 177.33 36.769 325.812v-63.635l11.642-6.72-20.835-30.386-18.382 10.592a18.365 18.365 0 0 0-9.192 15.908V357.63a18.37 18.37 0 0 0 9.192 15.909A18.38 18.38 0 0 0 18.386 376a18.39 18.39 0 0 0 9.192-2.461l312.519-180.3a18.367 18.367 0 0 0 9.192-15.909 18.365 18.365 0 0 0-9.192-15.908l-91.605-52.85a17.54 17.54 0 0 0-.594-.342l-91.635-52.867a18.397 18.397 0 0 0-18.383 0L9.195 129.604c-8.793 5.073-11.805 16.307-6.729 25.094 3.405 5.893 9.584 9.188 15.938 9.188a18.32 18.32 0 0 0 9.174-2.464L147.07 92.484l147.067 84.847Z" fill="url(#f)"/></g><defs><linearGradient id="b" x1="10.066" x2="68.113" y1="83.92" y2="-.13" gradientUnits="userSpaceOnUse"><stop offset=".26" stop-color="#ff670d"/><stop offset="1" stop-color="#ff5317"/></linearGradient><linearGradient id="d" x1="51.719" x2="127.497" y1="214.43" y2="82.364" gradientUnits="userSpaceOnUse"><stop stop-color="#ff7207"/><stop offset="1" stop-color="#ff7208" stop-opacity="0"/></linearGradient><linearGradient id="f" x1="13.055" x2="349.288" y1="376" y2="170.804" gradientUnits="userSpaceOnUse"><stop stop-color="#ff8000"/><stop offset="1" stop-color="#ff4020"/></linearGradient><radialGradient id="e" cx="0" cy="0" r="1" gradientTransform="matrix(31.61657 1.50556 -1.6276 34.17927 34.628 229.717)" gradientUnits="userSpaceOnUse"><stop stop-color="#ff7307"/><stop offset="1" stop-color="#ff7408" stop-opacity="0"/></radialGradient><clipPath id="a"><path d="M0 0h1458v376H0Z" fill="#fff"/></clipPath><path d="M294.137 177.33 36.769 325.812v-63.635l201.909-116.553-36.583-21.106L9.194 235.663a18.365 18.365 0 0 0-9.192 15.908V357.63a18.37 18.37 0 0 0 9.192 15.909A18.38 18.38 0 0 0 18.386 376a18.39 18.39 0 0 0 9.192-2.461l312.519-180.3a18.367 18.367 0 0 0 9.192-15.909 18.365 18.365 0 0 0-9.192-15.908l-91.605-52.85a17.54 17.54 0 0 0-.594-.342l-91.635-52.867a18.397 18.397 0 0 0-18.383 0L9.195 129.604c-8.793 5.073-11.805 16.307-6.729 25.094 3.405 5.893 9.584 9.188 15.938 9.188a18.32 18.32 0 0 0 9.174-2.464L147.07 92.484l147.067 84.847Z" id="c"/></defs></svg>